# Blender 3.6.2
# www.blender.org
mtllib arrowz.mtl
o Cube
v 0.000000 0.000000 -1.000000
v 0.070711 0.070711 -0.700000
v -0.012500 0.012500 -0.700000
v -0.012500 -0.012500 -0.700000
v 0.012500 0.012500 -0.700000
v 0.012500 -0.012500 -0.700000
v -0.012500 0.012500 1.000000
v -0.012500 -0.012500 1.000000
v 0.012500 0.012500 1.000000
v 0.012500 -0.012500 1.000000
v -0.070711 0.070711 -0.700000
v 0.070711 -0.070711 -0.700000
v -0.070711 -0.070711 -0.700000
v -0.000000 -0.100000 -0.700000
v 0.100000 0.000000 -0.700000
v -0.100000 0.000000 -0.700000
v -0.000000 0.100000 -0.700000
v -0.000000 0.000000 -0.700000
vn -0.0000 -0.0000 -1.0000
vn -0.0000 -0.0000 1.0000
vn -1.0000 -0.0000 -0.0000
vn -0.0000 -1.0000 -0.0000
vn -0.0000 1.0000 -0.0000
vn 1.0000 -0.0000 -0.0000
vn 0.3657 0.8830 -0.2943
vn 0.8830 0.3657 -0.2943
vn -0.3657 0.8830 -0.2943
vn -0.8830 0.3657 -0.2943
vn -0.8830 -0.3657 -0.2943
vn -0.3657 -0.8830 -0.2943
vn 0.3657 -0.8830 -0.2943
vn 0.8830 -0.3657 -0.2943
vt 0.375000 0.250000
vt 0.625000 0.000000
vt 0.375000 0.000000
vt 0.625000 0.250000
vt 0.000000 0.000000
s 0
usemtl Material
f 4/1/1 5/2/1 6/3/1
f 9/2/2 8/1/2 10/3/2
f 4/1/3 7/4/3 3/4/3
f 6/3/4 8/1/4 4/1/4
f 3/4/5 9/2/5 5/2/5
f 5/2/6 10/3/6 6/3/6
f 17/5/7 2/5/7 1/5/7
f 15/5/8 1/5/8 2/5/8
f 17/5/2 18/5/2 2/5/2
f 15/5/2 2/5/2 18/5/2
f 15/5/2 18/5/2 12/5/2
f 14/5/2 12/5/2 18/5/2
f 18/5/2 13/5/2 14/5/2
f 18/5/2 16/5/2 13/5/2
f 18/5/2 11/5/2 16/5/2
f 17/5/2 11/5/2 18/5/2
f 17/5/9 1/5/9 11/5/9
f 16/5/10 11/5/10 1/5/10
f 16/5/11 1/5/11 13/5/11
f 14/5/12 13/5/12 1/5/12
f 14/5/13 1/5/13 12/5/13
f 15/5/14 12/5/14 1/5/14
f 4/1/1 3/4/1 5/2/1
f 9/2/2 7/4/2 8/1/2
f 4/1/3 8/1/3 7/4/3
f 6/3/4 10/3/4 8/1/4
f 3/4/5 7/4/5 9/2/5
f 5/2/6 9/2/6 10/3/6
